PathFileType	4	(X/Y/Z)	C:/Users/beibeiliu/ov580/test_trc/User3\sequence.39_training_dense_right.trc
DataRate	CameraRate	NumFrames	NumMarkers	Units	OrigDataRate	OrigDataStartFrame	OrigNumFrames
120	120	20	19	mm	120	30	235
Frame#	Time	ThumbCMC			ThumbMCP			ThumbIP			ThumbTip			IndexMCP			IndexPIP			IndexTip			MiddleMCP			MiddlePIP			MiddleTip			RingMCP			RingPIP			RingTip			PinkyMCP			PinkyPIP			PinkyTip			BackHand1			BackHand2			BackHand3	
		X0	Y0	Z0	X1	Y1	Z1	X2	Y2	Z2	X3	Y3	Z3	X4	Y4	Z4	X5	Y5	Z5	X6	Y6	Z6	X7	Y7	Z7	X8	Y8	Z8	X9	Y9	Z9	X10	Y10	Z10	X11	Y11	Z11	X12	Y12	Z12	X13	Y13	Z13	X14	Y14	Z14	X15	Y15	Z15	X16	Y16	Z16	X17	Y17	Z17	X18	Y18	Z18	
29	0.241667	135.171	-24.3429	28.7547	132.415	-8.41951	1.21956	117.67	-15.123	-27.2291	101.933	-43.47	-28.8981	122.871	-41.8244	-50.3066	91.18	-34.6773	-58.4741	84.5588	-34.3044	-26.9459	107.519	-57.6767	-49.8095	78.1431	-50.7269	-41.2443	90.1181	-55.3851	-0.247558	104.595	-79.0396	-42.9335	76.5776	-69.5431	-33.2094	83.2341	-60.7512	-1.17335	108.98	-95.4724	-33.1784	82.738	-84.4914	-32.2221	81.642	-79.221	-3.68754	146.515	-83.1127	2.37091	151.569	-83.2837	32.2731	154.978	-49.8733	17.4903	
30	0.25	138.534	-25.7209	34.938	134.678	-7.93889	10.3319	120.088	-13.4629	-17.2074	104.081	-36.4886	-24.0032	131.923	-37.142	-46.3526	101.911	-32.0448	-59.7295	87.9447	-26.6226	-31.7491	109.213	-50.3972	-44.0955	78.9852	-45.9874	-32.6566	89.1356	-52.2644	2.67422	106.322	-73.0377	-38.7296	77.3741	-71.4434	-31.4662	81.6513	-58.2455	2.15486	113.542	-89.9103	-29.5788	88.1531	-83.9199	-39.8854	67.2512	-74.6327	-20.128	148.64	-86.0045	6.25743	152.941	-88.8529	32.5065	154.216	-51.9637	22.4994	
31	0.258333	142.95	-23.7538	31.1176	140.449	-3.61292	6.19339	124.244	-12.7095	-21.8575	105.541	-32.0152	-28.7671	124.63	-37.683	-48.5972	95.6494	-31.3609	-53.748	90.7468	-27.7633	-19.5056	109.192	-53.8942	-48.2413	80.6277	-47.8599	-38.6406	93.6756	-52.088	0.135191	108.611	-71.4454	-39.7189	78.2674	-66.6299	-33.3994	82.072	-59.0301	-1.43445	110.804	-90.7344	-29.8192	84.7558	-79.5922	-36.6679	72.6529	-70.9041	-11.9772	147.556	-83.0085	-0.114729	154.524	-84.1343	35.5963	158.181	-52.9466	19.9946	
32	0.266667	136.981	-20.5125	33.1117	137.901	0.205728	6.0185	127.671	-9.03631	-23.4446	113.091	-24.4394	-38.3908	122.564	-29.4843	-46.0592	90.9008	-28.079	-43.0887	94.7414	-37.1302	-9.91144	118.802	-52.533	-44.1496	86.0305	-49.8241	-36.3267	95.9781	-53.3926	0.414062	116.466	-72.8994	-33.9306	83.8595	-68.271	-26.0202	87.8813	-55.5678	5.2976	121.386	-89.5736	-26.0646	91.8021	-81.8611	-27.6181	91.0435	-77.5248	2.30145	156.248	-76.272	9.6335	158.539	-77.9186	39.892	156.279	-43.6638	23.9265	
33	0.275	142.953	-26.4703	39.8101	140.757	-8.79694	13.2724	133.052	-1.86425	-16.3366	126.976	7.64279	-34.4386	128.786	-20.855	-38.726	99.1505	-15.1758	-35.3852	103.032	-21.8932	-1.41133	120.654	-41.5608	-42.2248	89.2626	-31.312	-32.5152	97.4063	-46.296	0.368948	111.964	-60.9591	-40.6532	83.1268	-50.4905	-28.3096	94.4317	-48.4112	0.538369	112.824	-77.6019	-36.3264	86.8787	-67.562	-36.915	87.6351	-62.1574	-4.5183	149.394	-81.052	1.93142	149.813	-91.2968	33.7627	159.034	-57.2457	22.4777	
34	0.283333	143.379	-28.0542	38.2228	139.517	-8.89318	14.1124	131.55	2.42836	-11.2569	125.741	10.004	-28.152	126.329	-20.3574	-37.4622	96.8287	-10.8801	-29.2271	102.38	-20.2148	0.936508	117.59	-36.4562	-42.7478	87.9647	-29.3935	-30.1868	98.853	-40.7339	4.47309	111.492	-54.8586	-39.3186	82.7853	-48.2379	-24.7928	94.962	-44.4825	3.05852	115.418	-73.0118	-36.0797	89.5044	-61.2245	-38.0067	80.3979	-64.0904	-9.72381	149.178	-83.059	1.74458	151.058	-92.1766	32.5766	159.299	-52.6826	24.8742	
35	0.291667	135.044	-13.9879	39.8511	130.048	-2.32009	9.59073	121.268	1.91274	-21.1134	114.192	-6.4043	-39.431	127.973	-14.7773	-38.7419	97.1693	-13.4822	-36.0346	101.156	-27.071	-4.98804	120.499	-37.0356	-41.1592	90.345	-36.5596	-32.3415	101.444	-43.0893	9.76598	116.368	-57.3345	-38.3585	87.3712	-53.7312	-27.373	89.0889	-47.0458	3.61641	118.674	-77.3657	-33.1683	94.589	-67.7435	-32.0197	99.1584	-56.4	-1.28481	156.449	-67.5101	5.06923	157.826	-76.0178	36.8705	158.132	-42.2963	24.7251	
36	0.3	134.895	-12.9923	41.764	130.958	2.94204	10.2528	123.308	7.48253	-17.9161	117.539	4.42002	-41.8908	129.651	-5.40432	-31.298	98.0273	-6.79315	-25.367	107.945	-24.4584	4.89042	120.121	-24.7718	-37.8511	92.4697	-25.8843	-25.1334	107.543	-39.5041	10.6667	120.155	-50.434	-37.2316	90.2045	-41.012	-29.9943	93.333	-38.6958	5.22651	121.651	-67.8287	-34.6794	93.2788	-54.4997	-36.2452	84.1047	-52.1142	-11.5838	156.558	-64.275	4.59764	151.852	-72.9683	35.3306	159.258	-39.6416	27.8576	
37	0.308333	134.243	-7.20295	37.9151	131.746	8.7455	6.45905	126.137	5.32368	-23.5671	116.131	-16.0364	-39.6683	131.653	-11.9151	-33.624	97.4147	-7.34699	-22.6368	109.55	-16.72	5.33344	124.895	-30.1909	-36.6616	93.3651	-21.6502	-24.1731	108.028	-33.2842	12.8912	120.657	-51.3224	-35.6227	90.4863	-40.1307	-26.54	92.6396	-37.8391	4.03929	114.258	-67.8432	-31.3237	89.9967	-53.5025	-26.9052	83.843	-40.3087	-1.46026	156.979	-62.389	10.607	152.212	-65.2693	38.536	159.995	-29.2737	28.0329	
38	0.316667	137.552	-2.25401	38.2611	132.988	8.86599	8.45207	121.542	0.758084	-16.3394	112.576	-3.63038	-37.691	134.408	-3.45174	-35.5061	101.155	1.28832	-42.0531	90.1917	-6.07966	-12.2558	118.121	-27.9207	-39.0134	90.081	-24.9083	-24.2536	107.392	-32.9126	11.0021	115.608	-46.9902	-36.2707	88.3148	-36.9847	-27.0147	93.0578	-31.712	7.54402	115.874	-64.9434	-25.1975	89.171	-52.7419	-23.6119	82.992	-32.8648	-0.92291	157.057	-56.3015	5.70107	155.895	-63.8011	36.6487	159.629	-30.2755	29.8811	
39	0.325	139.161	-8.46528	49.5431	136.606	16.0322	27.0715	124.616	11.9086	-3.19984	109.613	-12.4509	-14.7389	142.561	-5.13102	-32.1623	118.462	2.00972	-49.1362	93.2009	4.21592	-29.2633	126.014	-18.8113	-36.73	94.5887	-9.68129	-33.2232	92.9397	-25.1646	2.54514	117.843	-40.8644	-32.8146	89.6911	-36.7815	-28.7613	90.9612	-30.7268	6.16144	123.561	-58.3751	-28.2911	98.5579	-49.3943	-36.6543	80.0757	-41.3893	-15.6124	153.635	-56.7255	12.9398	154.549	-65.8599	44.2801	159.488	-32.2641	36.4881	
40	0.333333	140.389	-7.93282	49.7179	142.245	15.2999	31.443	129.874	17.9006	-0.383149	117.004	-7.39773	-9.46042	140.798	-6.82437	-30.02	114.289	4.85634	-46.7907	94.2549	2.8707	-20.6752	132.134	-17.9023	-35.805	98.3687	-15.8772	-41.4315	93.3732	-25.5749	1.2828	124.252	-40.6366	-35.3025	92.8908	-35.6217	-32.8887	88.0022	-38.5985	-1.82899	128.164	-60.1831	-27.8621	107.003	-53.0443	-41.6226	78.8412	-47.5945	-34.4897	158.227	-60.0927	14.9338	158.97	-67.7824	42.5414	159.338	-25.3137	33.3312	
41	0.341667	143.89	-7.62993	48.8166	144.071	12.3495	21.1014	130.542	12.1558	-7.55104	114.887	-8.90279	-16.6236	134.154	-6.54444	-34.5678	103.084	3.00204	-41.0888	98.3643	-1.35615	-7.2201	125.478	-20.9899	-36.6849	91.6297	-18.3377	-34.0707	99.4434	-28.3831	5.79781	119.597	-46.2986	-38.7102	91.7202	-40.6856	-37.4428	89.6784	-32.9267	-2.34465	127.911	-61.7479	-26.8545	109.512	-53.5376	-45.3079	81.0467	-45.1807	-30.5451	154.925	-58.5577	10.3845	156.994	-66.2649	37.0148	160.414	-31.2707	29.1659	
42	0.35	145.806	-8.42242	43.2814	143.784	9.59832	19.8276	131.16	13.4537	-9.50284	115.615	-7.29935	-18.8725	133.102	-8.46997	-37.7355	104.763	0.633503	-42.9013	100.734	-5.13911	-5.52032	122.798	-24.5621	-39.1873	90.623	-19.5228	-28.413	101.957	-31.7935	7.55911	120.311	-50.3143	-39.5628	93.253	-43.4673	-35.903	91.7432	-38.599	-1.72225	128.087	-63.8034	-32.5715	105.836	-54.6388	-43.236	81.3938	-49.4921	-28.45	159.634	-59.3854	11.1477	159.976	-69.2505	37.9398	163.26	-34.3438	29.0202	
43	0.358333	146.453	-7.2249	40.2927	146.854	13.5509	18.2373	134.033	13.1884	-13.0726	115.133	-7.44292	-25.9785	130.561	-9.13456	-41.105	99.5057	-4.02253	-39.5921	102.404	-7.26003	-5.68731	122.039	-27.0091	-39.5181	89.5942	-27.6503	-28.9786	100.875	-34.9973	4.04856	116.839	-47.082	-37.2765	88.1858	-44.5686	-26.7694	98.5387	-34.8762	3.0945	129.093	-67.3988	-29.8741	107.13	-59.3188	-42.8039	87.1844	-55.3858	-15.035	157.172	-64.0887	6.86351	162.104	-67.6899	34.5749	164.467	-31.7135	24.7808	
44	0.366667	144.163	-8.22105	40.4688	139.764	10.0628	17.9723	128.303	5.91372	-15.1532	114.231	-12.7798	-27.0432	132.579	-10.4835	-36.319	101.523	-6.14582	-30.776	105.322	-14.1535	0.866409	128.879	-34.2685	-37.7763	95.685	-27.7498	-32.6486	103.686	-33.2418	7.90237	124.092	-54.1344	-34.057	93.3977	-44.669	-31.2905	91.4573	-43.9362	3.88905	129.467	-65.321	-29.4066	104.878	-61.6317	-39.9468	85.7772	-51.1432	-17.2425	160.489	-62.4388	9.52524	157.618	-68.0403	44.315	162.905	-34.5557	27.4895	
45	0.375	141.666	-13.6102	46.5043	137.783	5.69971	21.9415	128.609	3.48842	-11.6822	114.627	-11.4018	-24.9888	135.138	-11.447	-32.2052	103.198	-8.36863	-35.4019	104.452	-11.2097	1.7267	128.597	-34.8592	-36.5858	94.9033	-23.7077	-32.8823	100.565	-31.8656	4.35986	118.588	-54.5822	-32.9123	91.8518	-45.4657	-25.4471	98.6844	-40.123	7.62196	130.154	-66.9274	-23.3966	110.822	-58.9338	-41.2898	82.2818	-50.4548	-31.1755	155.715	-66.7019	10.4395	157.057	-74.4471	42.5156	161.672	-38.6394	33.3667	
46	0.383333	142.211	-18.0719	43.4009	136.599	-2.75211	15.654	128.212	-0.813649	-12.279	117.938	0.0459826	-36.9026	138.074	-19.7966	-32.8547	107.185	-1.39821	-34.842	99.9081	-8.03094	-3.84267	128.944	-32.0953	-36.7675	95.8514	-22.8366	-31.7829	101.195	-32.983	5.39516	117.947	-53.4846	-35.9416	87.9609	-41.946	-30.9174	93.1776	-36.1075	3.30109	122.497	-69.8407	-31.3224	103.582	-57.175	-42.5093	85.9819	-52.6609	-14.4041	149.377	-74.2142	7.05043	149.983	-82.7355	40.6501	160.639	-48.2293	31.4948	
47	0.391667	133.919	-17.1432	46.1463	127.717	2.6165	20.8677	122.633	1.6932	-9.98639	115.597	1.38957	-33.4437	134.277	-9.78635	-31.1083	101.272	-7.31316	-34.6042	99.4762	-14.7047	-3.38247	125.158	-29.6636	-37.3026	93.1193	-30.8207	-31.2859	99.0113	-43.0432	3.48735	120.285	-53.9952	-34.9917	90.8839	-47.8302	-25.937	98.9378	-48.5098	9.12885	124.018	-69.955	-30.1341	94.1386	-62.7549	-26.6824	97.8817	-63.4674	1.82151	159.903	-65.0096	9.9969	157.648	-79.719	39.0721	160.022	-41.8513	28.6829	
48	0.4	133.554	-20.9606	42.879	127.039	-5.35741	17.3794	119.798	0.667417	-12.3529	114.759	-6.52643	-38.8838	132.141	-10.2149	-29.7727	101.089	-9.96097	-29.1327	103.858	-25.2415	0.75926	130.861	-35.4351	-35.9249	97.2914	-29.3681	-32.8518	103.79	-39.8586	7.05251	124.986	-50.4101	-37.351	95.0583	-49.5588	-32.5301	89.7506	-48.0757	-1.52116	125.873	-73.2619	-31.014	98.5694	-62.1139	-29.5658	99.4026	-62.1895	-2.04239	161.321	-66.7735	9.09799	157.612	-78.5377	42.8839	158.668	-39.1617	36.0509	
